<svg xmlns="http://www.w3.org/2000/svg" id="Logo" viewBox="0 0 143 24.9" class="amsvglogo replaced-svg"><title>AI_logo_header</title><path id="Doctreat" d="M34.1,21.4h7.5a9.78,9.78,0,0,0,6.7-2.3,9,9,0,0,0,2.8-6.9,8.63,8.63,0,0,0-2.8-6.8,9.62,9.62,0,0,0-6.7-2.3H34.1V21.4ZM38,18V6.7h3.6c2.5,0,5.5.9,5.5,5.7s-3,5.7-5.5,5.7H38V18Zm22,3.7a7.34,7.34,0,0,0,7.5-7.1,7.45,7.45,0,0,0-14.9,0A7.26,7.26,0,0,0,60,21.7h0Zm0-11a3.78,3.78,0,0,1,3.8,3.7v0.1a3.78,3.78,0,0,1-3.6,3.9H60.1a3.78,3.78,0,0,1-3.8-3.7V14.5A3.71,3.71,0,0,1,60,10.7h0Zm16.2,11a6.68,6.68,0,0,0,6.6-4l-3.1-1.2a3.9,3.9,0,0,1-7.3-1.6V14.6a3.76,3.76,0,0,1,3.5-3.9h0.2a4,4,0,0,1,3.4,2l3.4-1.3a7.49,7.49,0,0,0-14.1,3.1,7.34,7.34,0,0,0,7.4,7.2h0Z" fill="#3d4461"></path><path id="Doctreat-2" data-name="Doctreat" d="M89.2,10.7H92V7.5H89.2V3.8H85.5V7.5H83.8v3.3h1.7v7.6c0,2.9,1.8,3.4,4.7,3.4a9.7,9.7,0,0,0,1.7-.1V18.6a2.72,2.72,0,0,1-.9,0c-1.7,0-1.7-1.3-1.7-2l-0.1-5.9h0Zm13,0.4V7.5a5.77,5.77,0,0,0-4.7,2.1V7.7H93.8V21.4h3.7V15.3c0-4.1,3.8-4.3,4.7-4.2h0Zm7.7,10.7a7.52,7.52,0,0,0,6.4-3.2l-2.9-1.7a4.79,4.79,0,0,1-3.5,1.6c-0.8,0-3.3-.3-3.7-2.5H117a9.65,9.65,0,0,0,0-1.7,6.85,6.85,0,0,0-7-6.8h-0.2c-2.6,0-7.4,1.5-7.4,7.1s4.8,7.2,7.5,7.2h0Zm0-11a3.07,3.07,0,0,1,3.2,2.6h-6.8c0.1-1.4,1.4-2.6,3.6-2.6h0Zm19.5,10.6h3.7V7.7h-3.7V9.1a5.18,5.18,0,0,0-4.2-1.7c-4.3,0-6.9,3.2-6.9,7.1s2.5,7.1,6.9,7.1a5.66,5.66,0,0,0,4.1-1.7l0.1,1.5h0Zm0.2-6.8a3.57,3.57,0,0,1-3.2,3.9h-0.6A3.67,3.67,0,0,1,122,15V14.6a3.8,3.8,0,0,1,3.8-3.8,3.86,3.86,0,0,1,3.8,3.8h0Zm10.7-3.8H143V7.5h-2.7V3.8h-3.7V7.5h-1.7v3.3h1.7v7.6c0,2.9,1.8,3.4,4.7,3.4a9.7,9.7,0,0,0,1.7-.1V18.6a2.72,2.72,0,0,1-.9,0c-1.7,0-1.7-1.3-1.7-2l-0.1-5.8h0Z" fill="#ff5851"></path><path id="Icon" d="M9.7,13.9a1,1,0,0,1-.9.8H2.7a0.82,0.82,0,0,1-.7-1A0.73,0.73,0,0,1,2.6,13H8.9a0.82,0.82,0,0,1,.8.9h0Zm0-2.9A0.9,0.9,0,0,1,9,12H4.4a0.82,0.82,0,0,1-.8-0.9h0V11a1,1,0,0,1,.9-0.8H8.9a1,1,0,0,1,.8.8h0ZM29,9.8v5.3a2.58,2.58,0,0,1-2.6,2.6H23a1.1,1.1,0,0,0-1.1,1h0v3.4a2.58,2.58,0,0,1-2.6,2.6H13.9a2.65,2.65,0,0,1-2.6-2.6,1,1,0,0,1,.8-0.9,0.82,0.82,0,0,1,1,.7h0V22a0.9,0.9,0,0,0,.9.9h5.4a0.9,0.9,0,0,0,.9-0.9h0V17.9a2.05,2.05,0,0,1,2.1-2.1h4.1a0.9,0.9,0,0,0,.9-0.9h0V9.8a0.9,0.9,0,0,0-.9-0.9H22.3a2.05,2.05,0,0,1-2.1-2.1V2.6a0.9,0.9,0,0,0-.9-0.9H13.9a0.9,0.9,0,0,0-.9.9h0V6.7a2.05,2.05,0,0,1-2.1,2.1H6.7A0.79,0.79,0,0,1,5.9,8a0.77,0.77,0,0,1,.7-0.8h3.5a1.1,1.1,0,0,0,1.1-1h0V2.6A2.58,2.58,0,0,1,13.8,0h5.4a2.58,2.58,0,0,1,2.6,2.6V6a1.1,1.1,0,0,0,1,1.1h3.4A2.71,2.71,0,0,1,29,9.8h0Z" fill="#3d4461"></path><path id="Icon-2" d="M19,14.8a3.06,3.06,0,0,1-2.9,3H0.9a0.77,0.77,0,0,1-.8-0.9,0.77,0.77,0,0,1,.7-0.8H16a1.32,1.32,0,0,0,1.3-1.3,1.38,1.38,0,0,0-1.1-1.3l-1.1-.1,0.4-1c0-.1.1-0.3,0.1-0.4a1.24,1.24,0,0,0-1.4-1.1A1.27,1.27,0,0,0,13.1,12v1.9a0.77,0.77,0,0,1-.9.8,0.77,0.77,0,0,1-.8-0.7V11.9a3,3,0,1,1,6,0V12A3.41,3.41,0,0,1,19,14.8Z" fill="#ff5851"></path></svg>